<svg width="38" height="35" viewBox="0 0 38 35" fill="none" xmlns="http://www.w3.org/2000/svg">
<path d="M19 4.375C4.22222 4.375 0 10.9375 0 18.5938C0 26.25 5.27778 30.625 11.6111 30.625H12.1653C13.7618 30.625 15.2264 29.6885 15.9389 28.2051L17.4694 25.04C17.7597 24.4385 18.3469 24.0625 19 24.0625C19.6531 24.0625 20.2403 24.4385 20.5306 25.04L22.0611 28.2051C22.7736 29.6885 24.2382 30.625 25.8347 30.625H26.3889C32.7222 30.625 38 26.25 38 18.5938C38 10.9375 33.7778 4.375 19 4.375ZM6.33333 17.5C6.33333 16.3397 6.77817 15.2269 7.56999 14.4064C8.36181 13.5859 9.43575 13.125 10.5556 13.125C11.6754 13.125 12.7493 13.5859 13.5411 14.4064C14.3329 15.2269 14.7778 16.3397 14.7778 17.5C14.7778 18.6603 14.3329 19.7731 13.5411 20.5936C12.7493 21.4141 11.6754 21.875 10.5556 21.875C9.43575 21.875 8.36181 21.4141 7.56999 20.5936C6.77817 19.7731 6.33333 18.6603 6.33333 17.5ZM27.4444 13.125C28.5642 13.125 29.6382 13.5859 30.43 14.4064C31.2218 15.2269 31.6667 16.3397 31.6667 17.5C31.6667 18.6603 31.2218 19.7731 30.43 20.5936C29.6382 21.4141 28.5642 21.875 27.4444 21.875C26.3246 21.875 25.2507 21.4141 24.4589 20.5936C23.6671 19.7731 23.2222 18.6603 23.2222 17.5C23.2222 16.3397 23.6671 15.2269 24.4589 14.4064C25.2507 13.5859 26.3246 13.125 27.4444 13.125Z" fill="#0087BC"/>
</svg>
