<svg width="24" height="19" viewBox="0 0 24 19" fill="none" xmlns="http://www.w3.org/2000/svg">
<g clip-path="url(#clip0_71_1768)">
<path d="M2.79749 13.8491C4.36124 15.1888 6.84749 16.9107 9.02624 16.5841C9.25499 16.5507 9.47999 16.4913 9.70124 16.4171C9.35624 15.9607 9.05249 15.5116 8.79374 15.1034C7.97249 13.8046 7.71374 12.3128 7.82249 10.8878C7.04999 11.04 6.35249 11.3702 5.77124 11.8304C5.52749 12.0234 5.15999 11.8786 5.21624 11.5706C5.45624 10.3275 6.45374 9.31066 7.77374 9.11027C7.87124 9.09543 7.97249 9.0843 8.06999 9.08059L8.79749 4.20813C8.87249 3.69602 9.09749 2.99465 9.73499 2.5048C10.4325 1.97414 11.6437 1.37297 13.62 1.19484C13.59 1.16887 13.56 1.14289 13.53 1.11691C12.7725 0.538008 10.815 -0.426836 6.58874 0.207734C2.36249 0.842305 0.768742 2.33781 0.213742 3.1134C-8.44002e-06 3.41027 -0.0300084 3.78508 0.0224916 4.14875L0.929992 10.2458C1.13624 11.63 1.73624 12.94 2.79749 13.8529V13.8491ZM6.08624 5.69992C6.25124 5.58488 6.49124 5.6257 6.52874 5.82238C6.53249 5.84094 6.53624 5.8632 6.53999 5.88176C6.65999 6.69074 6.10499 7.44035 5.29874 7.56281C4.49249 7.68527 3.74249 7.12492 3.62249 6.31965C3.61874 6.30109 3.61874 6.27883 3.61499 6.26027C3.59249 6.05988 3.80999 5.94855 4.00124 6.01164C4.33874 6.12297 4.70624 6.15637 5.07749 6.1007C5.44874 6.04504 5.79374 5.90402 6.08249 5.69992H6.08624ZM9.80999 14.4726C10.9125 16.213 12.7912 18.588 14.97 18.9146C17.1487 19.2411 19.6387 17.523 21.1987 16.1796C22.26 15.2704 22.86 13.9605 23.0662 12.5726L23.9737 6.47551C24.0262 6.11184 23.9962 5.73703 23.7825 5.44016C23.2275 4.66457 21.6337 3.16906 17.4075 2.53449C13.1812 1.89992 11.2275 2.86477 10.47 3.44367C10.1775 3.66633 10.0387 4.01516 9.98624 4.37883L9.07874 10.4759C8.87249 11.8601 9.06374 13.2888 9.81374 14.4726H9.80999ZM15.1687 8.73176C14.88 8.52766 14.5387 8.38664 14.1637 8.33098C13.7887 8.27531 13.4212 8.30871 13.0875 8.42004C12.8962 8.48312 12.6787 8.3718 12.7012 8.17141C12.705 8.15285 12.705 8.13059 12.7087 8.11203C12.8287 7.30305 13.5787 6.74641 14.385 6.86887C15.1912 6.99133 15.7462 7.74094 15.6262 8.54992C15.6225 8.56848 15.6187 8.59074 15.615 8.6093C15.5775 8.80598 15.3375 8.8468 15.1725 8.73176H15.1687ZM20.2762 9.30695C20.2387 9.50363 19.9987 9.54445 19.8337 9.42941C19.545 9.22531 19.2037 9.0843 18.8287 9.02863C18.4537 8.97297 18.0862 9.00637 17.7525 9.11769C17.5612 9.18078 17.3437 9.06945 17.3662 8.86906C17.37 8.85051 17.37 8.82824 17.3737 8.80969C17.4937 8.0007 18.2437 7.44406 19.05 7.56652C19.8562 7.68898 20.4112 8.43859 20.2912 9.24758C20.2875 9.26613 20.2837 9.2884 20.28 9.30695H20.2762ZM19.875 12.9956C19.14 14.6544 17.37 15.6861 15.495 15.404C13.62 15.122 12.2287 13.6154 12.0075 11.8155C11.97 11.5075 12.3412 11.3665 12.5775 11.5669C13.4737 12.3388 14.5875 12.8769 15.84 13.0624C17.0925 13.248 18.3187 13.0661 19.3987 12.5874C19.6837 12.4613 19.9987 12.7062 19.8712 12.9919L19.875 12.9956Z" fill="#0087BC"/>
</g>
<defs>
<clipPath id="clip0_71_1768">
<rect width="24" height="19" fill="white"/>
</clipPath>
</defs>
</svg>
